<svg width="100" height="48" viewBox="0 0 100 48" fill="none" xmlns="http://www.w3.org/2000/svg">
<path d="M0 32.0586H8.02623L22.4216 0.712825H13.9788L0 32.0586ZM0.95352 9.27599C0.95352 9.27599 1.546 6.84127 4.23067 4.04552C6.89682 1.18496 9.51668 0.712825 9.51668 0.712825H0.95352V9.27599ZM13.8584 32.0586H22.4216V23.4955C22.4216 23.4955 21.8291 25.9394 19.1537 28.7259C16.5338 31.5772 13.8584 32.0586 13.8584 32.0586Z" fill="#006D57"/>
<path d="M42.1122 32.0586H50.7958L37.4095 0L33.4287 10.822L42.1122 32.0586Z" fill="#006D57"/>
<path d="M60.0069 32.0586H67.3851V15.1637L59.8866 0.712825H53.1101L60.0069 15.1637V32.0586Z" fill="#006D57"/>
<path d="M99.2031 32.7715V20.996L84.5115 0.712825H77.9109V4.81389L99.2031 32.7715Z" fill="#006D57"/>
<path d="M5.51745 40.3904V41.242H3.2216V47.9167H2.2866V41.242H0V40.3904H5.51745Z" fill="#006D57"/>
<path d="M11.2663 43.5934H14.4972V40.3811H15.4322V47.9074H14.4972V44.4359H11.2663V47.9074H10.3313V40.3811H11.2663V43.5934Z" fill="#006D57"/>
<path d="M25.6525 40.3904V41.242H22.0513V43.6027H25.3284V44.4544H22.0513V47.0743H25.6525V47.9259H21.1163V40.3996H25.6525V40.3904Z" fill="#006D57"/>
<path d="M41.529 42.7325C41.2698 41.5568 40.6681 41.1495 39.7423 41.1495C38.5851 41.1495 37.9556 41.8716 37.9556 43.7323V44.5655C37.9556 46.4355 38.5851 47.1483 39.7423 47.1483C40.7236 47.1483 41.2791 46.6669 41.529 45.5653H42.4363C42.1956 47.2594 41.168 48 39.7423 48C38.076 48 37.0114 47.0002 37.0114 44.5655V43.7323C37.0114 41.2976 38.0667 40.2978 39.7423 40.2978C41.2235 40.2978 42.2048 41.0847 42.4455 42.7325H41.529Z" fill="#006D57"/>
<path d="M48.4629 47.065H52.064V47.9167H47.5279V40.3904H48.4629V47.065Z" fill="#006D57"/>
<path d="M57.8685 47.9167H56.9335V40.3904H57.8685V47.9167Z" fill="#006D57"/>
<path d="M64.5894 45.0469V47.9167H63.6544V40.3904H66.0521C67.7832 40.3904 68.7923 41.2606 68.7923 42.7232C68.7923 44.1859 67.8017 45.0469 66.0521 45.0469H64.5894ZM66.0521 44.1952C67.3296 44.1952 67.848 43.649 67.848 42.7232C67.848 41.7975 67.3203 41.242 66.0521 41.242H64.5894V44.1952H66.0521Z" fill="#006D57"/>
<path d="M74.8374 45.0469V47.9167H73.9024V40.3904H76.3001C78.0312 40.3904 79.0403 41.2606 79.0403 42.7232C79.0403 44.1859 78.0498 45.0469 76.3001 45.0469H74.8374ZM76.3001 44.1952C77.5776 44.1952 78.096 43.649 78.096 42.7232C78.096 41.7975 77.5684 41.242 76.3001 41.242H74.8374V44.1952H76.3001Z" fill="#006D57"/>
<path d="M88.6773 40.3904V41.242H85.0762V43.6027H88.3533V44.4544H85.0762V47.0743H88.6773V47.9259H84.1412V40.3996H88.6773V40.3904Z" fill="#006D57"/>
<path d="M98.157 47.9167L96.5832 44.7414H94.8058V47.9167H93.8708V40.3904H96.2685C97.9996 40.3904 99.0087 41.1124 99.0087 42.5751C99.0087 43.6305 98.481 44.297 97.5275 44.584L99.2123 47.9259H98.1662L98.157 47.9167ZM96.2685 43.8897C97.546 43.8897 98.0644 43.5009 98.0644 42.5659C98.0644 41.6309 97.5367 41.2328 96.2685 41.2328H94.8058V43.8804H96.2685V43.8897Z" fill="#006D57"/>
</svg>
