<svg xmlns="http://www.w3.org/2000/svg" width="84" height="72" fill="none"><path fill="#fff" d="M44.516 29.658c.322-.122.632-.266.942-.421 1.043-.488 2.085-.987 3.227-1.53-.078-.2-.166-.4-.288-.588a45 45 0 0 0-1.276-1.607c-.41-.5-.576-.477-.93.077-.666 1.076-1.32 2.162-1.974 3.249-.078.1-.145.221-.178.343a.6.6 0 0 0 .056.422.47.47 0 0 0 .421.044zm2.173-3.625c.4.51.71.887 1.087 1.374l-2.384 1.12-.122-.133 1.408-2.361z"/><path fill="#fff" d="M83.676 50.447c-1.907-2.229-3.78-4.48-5.688-6.708a3.8 3.8 0 0 0-1.009-.865c-.52-.3-1.053-.577-1.585-.865-.677-.366-1.342-.731-2.018-1.097-.189-.1-.377-.2-.566-.31a8.24 8.24 0 0 0-3.736-1.154c-.4-.033-.787-.089-1.175-.155-.699-.111-1.386-.233-2.14-.355V37.93c0-.133 0-.244-.011-.332v-.078c0-.067-.022-.133-.033-.177 0-.023 0-.034-.011-.056a.27.27 0 0 0-.09-.122h-.021a.24.24 0 0 0-.133-.033h-.067c-.044 0-.1 0-.155.022-.022 0-.044 0-.078.011l-.3.078c-.354.11-.709.222-1.063.321-.544.167-1.087.322-1.797.532.389-1.807.732-3.47 1.098-5.2-1.474-.598-2.971-.986-4.48-1.63.2-.288.422-.565.644-.83.62-.522.854-1.376.587-2.14-.066-.2-.11-.41-.11-.622 0-.62-.333-.842-.898-.997a705 705 0 0 1-9.147-2.595c-1.087-.31-1.863-.942-1.963-2.173-.044-.554-.21-1.097-.221-1.64 0-.533-.3-1.02-.788-1.253-3.17-1.952-6.353-3.903-9.523-5.866-.965-.598-1.93-1.197-2.828-1.751.089-.488.189-.887.233-1.298.188-1.463.333-2.938.554-4.39.1-.41-.044-.854-.388-1.109C32.941 3.082 31.123 1.552 29.26 0c-.222.155-.443.288-.643.455a1399 1399 0 0 0-6.353 5c-1.031.82-2.118 1.596-3.06 2.517-2.605 2.527-5.144 5.11-7.695 7.683-.144.144-.277.3-.41.455a5 5 0 0 0-.366.488q-.002.016-.022.033c-.665 1.009-1.33 2.029-1.995 3.038-1.442 2.195-2.883 4.379-4.313 6.574-.133.2-.244.41-.333.621-1.286 3.127-2.583 6.253-3.847 9.38-.155.388-.233.81-.222 1.23.022 1.741.1 3.482.144 5.223.033 1.508.056 3.015.045 4.523-.012.477.11.943.365 1.342 2.151 3.426 4.291 6.863 6.42 10.3.266.399.62.72 1.042.942l.71.421c.676.4 1.341.799 2.018 1.187l15.5 9.147c.82.476 1.64.953 2.472 1.441.52-.388.355-.843.344-1.242-.056-2.195-.156-4.38-.189-6.574a3.05 3.05 0 0 0-.51-1.697 681 681 0 0 1-4.8-7.661 2.7 2.7 0 0 1-.356-.865c-.41-2.128-.776-4.257-1.197-6.375a.8.8 0 0 1 .355-.931c1.33-1.01 2.65-2.018 3.936-3.071.077-.067.166-.122.255-.178.022-.01.055-.022.077-.033.067-.033.144-.055.222-.078a.2.2 0 0 0 .078-.022c.1-.022.188-.033.288-.033h.011c.122 0 .244.011.366.044 1.475.31 2.95.599 4.424.91.332.066.654.199.931.387A7737 7737 0 0 1 48.43 55.514l6.02 4.258a1 1 0 0 0 .2.144l.066.033c.044.022.1.045.144.067.034 0 .056.01.089.022l.144.033h.31c2.584-.399 5.156-.798 7.74-1.186 2.915-.432 5.842-.876 8.758-1.308.488-.078.976-.145 1.464-.222l2.018-.3c1.652-.243 3.315-.498 4.967-.742.343-.034.654-.222.831-.521.865-1.453 1.73-2.905 2.606-4.358a.73.73 0 0 0-.133-.986zm-5.422-5.389 4.502 5.355-.078.122c-1.02-.155-2.051-.288-3.071-.465a.67.67 0 0 1-.421-.388c-.389-1.497-.754-3.005-1.12-4.513l.188-.1zm-1.13-1.264c.498 2.007.964 3.925 1.485 6.032l-5.244-2.306-2.328-1.02 2.328-1.032zm1.163 6.52-2.904 1.142-2.018.787-2.983 1.175c-.133-1.109.144-5.843.388-6.408zm-4.911-8.66c.665.344 1.341.699 2.018 1.054.41.221.831.443 1.253.665l-1.253.554-4.712 2.096c.221-1.852.432-3.56.665-5.389.687.333 1.364.666 2.04 1.02zM66.7 40.347c-.731.92-1.44 1.863-2.195 2.772-.865 1.042-.477.942-1.796.521-1.12-.366-2.24-.72-3.37-1.087l-.023-.2 7.285-2.161.088.144zm-8.87 1.552-3.492-.277-.066-.188 2.85-2.506.709 2.983zm-.188-3.337 3.26.31a39 39 0 0 1-2.495 2.95 582 582 0 0 1-.765-3.26m.322 4.025c.676 3.137 1.241 6.23 1.884 9.524l-8.725-6.708zm.687.343 4.856 1.575a3244 3244 0 0 0-3.004 7.04h-.156a520 520 0 0 1-1.696-8.626zm1.242 9.935-2.151 2.938-7.151-4.58.244-5.321 9.047 6.963zm.266.587a.71.71 0 0 1 .754-.31q3.575.382 7.151.798c.166.044.333.122.488.2-.865.343-1.597.61-2.317.92a7.66 7.66 0 0 1-3.349.787c-1.419-.044-2.849-.011-4.446-.011.655-.898 1.209-1.63 1.73-2.384zm.876-1.674c.998-2.328 1.984-4.657 3.027-7.074l5.654 1.852-8.56 5.377zm2.517-13.47c.51-.112 1.009-.256 1.496-.444.034.576.056 1.075.078 1.618l.91.267-6.564 1.973-.1-.133c.332-.388.687-.754.986-1.153a4.8 4.8 0 0 1 3.172-2.129zm-4.657-6.176 3.426 1.13c-.31 1.442-.61 2.85-.931 4.313-.521-.288-.532-.842-.765-1.241-.244-.433-.433-.91-.643-1.364s-.444-.898-.621-1.375c-.167-.443-.577-.82-.466-1.463m-.177 1.496 2.15 4.646-3.204-.3c.3-1.474.588-2.893.887-4.323zM36.023 13.183c3.393 2.095 6.786 4.202 10.2 6.275.488.222.743.765.577 1.286-1.353.521-2.716 1.098-4.113 1.574a1.48 1.48 0 0 0-1.087 1.275c-.333 1.63-.765 3.238-1.153 4.857-.055.255-.21.499.089.742.41.056.487-.288.62-.565.677-1.32 1.364-2.628 2.018-3.958.167-.388.5-.676.898-.81.965-.343 1.93-.72 2.916-1.097.133.144.244.277.366.41a5.16 5.16 0 0 0 2.739 1.74c2.738.688 5.444 1.53 8.16 2.307.255.066.499.155.72.233a1 1 0 0 1 .078.188c.31 1.575.322 1.586-.687 2.85-.31.388-.599.743-.178 1.253.078.1.011.343-.022.52-.355 1.764-.743 3.515-1.064 5.278-.067.444-.3.843-.643 1.131-.965.832-1.93 1.652-2.86 2.495-.245.221-.61.565-.555.776.1.399.61.3.953.343.699.09 1.409.111 2.296.178-.156.122-.31.233-.477.321-1.586.655-3.182 1.287-4.768 1.963a1.6 1.6 0 0 1-1.153.066c-4.989-1.463-9.978-2.927-14.979-4.39a1.9 1.9 0 0 1-1.197-.931c-2.45-4.225-4.956-8.427-7.406-12.662a2.36 2.36 0 0 0-1.608-1.23c-2.35-.6-4.678-1.298-7.018-1.963-.144-.045-.288-.1-.499-.178.1-.188.21-.377.333-.554a902 902 0 0 1 4.069-5.067c.177-.221.41-.41.654-.543a5013 5013 0 0 1 10.976-5.532c.067-.034.144-.056.288-.122.82.498 1.675 1.02 2.528 1.54zm10.6 8.991c-.932.355-1.852.765-2.805 1.054a1.84 1.84 0 0 0-1.276 1.164q-.216.498-.498.964l-.156-.066c.156-.632.289-1.275.466-1.896a.57.57 0 0 1 .3-.322c1.385-.554 2.793-1.086 4.19-1.63.333.433.133.6-.21.732zm3.647 23.428c-.077 1.696-.155 3.37-.233 5.244L36.722 41.82l.077-.166zm-16.863-5.356-3.393.366c-1.142-3.87-2.295-7.683-3.393-11.508l.189-.078 6.608 11.22zM20.989 38.55l.089.177-10.333 7.684-1.176.876c.178-3.67.344-7.163.51-10.744zm-10.677-2.672c.144-.266.288-.532.433-.787 1.907-3.504 3.802-6.996 5.71-10.5l.177.034c1.54 4.412 3.082 8.836 4.623 13.26-.565.077-8.482-1.342-10.5-1.863-.21-.055-.365-.1-.432-.133zm.433 11.242 9.834-7.317.133.089c-.466 1.23-1.131 2.383-1.685 3.58-.544 1.198-1.154 2.373-1.774 3.66l-6.52.388h-.266l-.044-.156.322-.232zm-.034.954h.034l4.534-.233c.555-.033 1.098-.1 1.652-.089.233 0 .444.1.61.255 1.42 1.763 2.816 3.56 4.213 5.344.022.034 0 .1.022.255l-11.031-5.31-.078-.034.055-.177zm10.566-7.972.111.022v6.53l-3.448.4c1.153-2.395 2.24-4.679 3.337-6.963zm-3.969-15.267c-.055-.166-.089-.344-.166-.654l7.572 2.118c.045.676-2.029 8.526-2.882 11.01h-.078c-.022 0-.055 0-.067-.023-1.463-4.147-2.915-8.304-4.379-12.45m6.142-9.147 4.923-7.195 4.39 2.594c-.41.422-7.705 4.136-9.313 4.601m6.198-14.68 1.42 1.198c1.02.876 2.028 1.763 3.048 2.65.266.178.41.488.377.81-.188 1.518-.366 3.037-.565 4.545a3.6 3.6 0 0 1-.277.72L28.595 7.95c.344-2.317.687-4.567 1.042-6.951zm-.599.079c-.332 2.25-.665 4.445-1.008 6.752l-8.693 1.053c.51-.732 8.704-7.295 9.701-7.805M27.597 8.47a4 4 0 0 1-.233.487c-1.574 2.284-3.137 4.58-4.7 6.863-.245.41-.577.754-.988.998-.266.178-.498.4-.676.654-1.109 1.375-2.206 2.761-3.315 4.136-.144.177-.3.332-.443.499l-.134-.056c.533-4.135 1.076-8.27 1.62-12.517l8.858-1.075zm-9.535 1.818c-.521 4.058-1.064 8.216-1.608 12.395-.487-.388-3.947-5.321-4.479-6.341l6.076-6.054zM8.727 20.766c.742-1.142 1.474-2.24 2.018-3.026.332-.477.587-.832.753-1.02l4.657 6.796-5.4 1.375-2.017.51-3.349.853c.09-.343 1.752-3.026 3.349-5.488zm0 5.233 2.018-.51 5.1-1.297.1.144-5.2 9.569-.932 1.718-4.778-8.67 3.692-.942zm.576 14.757c-.122 1.131-.122 2.262-.188 3.393 0 1.142-.056 2.284-.2 3.415h-.2l-7.306.155c.2-.565 5.267-7.218 7.307-9.657.21-.255.388-.465.532-.62.21.498.188 2.04.055 3.314m-4.8-13.227c.365.3 3.07 5.067 4.213 7.351.255.5.432.887.487 1.076L8.716 36l-7.95.654 3.736-9.114zM.876 46.91c-.078-3.203-.155-6.408-.244-9.678l8.083-.666.454-.033-.454.588c-2.584 3.37-5.123 6.597-7.628 9.823zm6.63 11.387c-1.086-1.419-6.01-9.435-6.198-10.067h7.595l-.188 1.32-1.22 8.747zm3.382 2.428.077-.2 9.657 2.629-1.13 2.65-8.604-5.067zm9.147 5.267c.354-.82.71-1.652 1.13-2.617l5.921 6.697c-.698-.166-6.397-3.504-7.052-4.091zm3.148-10.378c.167.21.277.333.366.477 1.386 2.184 2.75 4.38 4.147 6.563.366.577.554 1.253.554 1.94.022 1.509.033 3.016.056 4.513 0 .444-.067 1.43-.067 1.43-.51-.554-1.02-1.108-1.519-1.674-1.596-1.796-3.17-3.603-4.779-5.388a1.42 1.42 0 0 1-.376-1.486c.52-1.94.953-3.891 1.43-5.843.033-.144.1-.288.177-.532zm-2.317 6.996-10.122-2.75-1.985-.543-.022-.166 2.007-.599 11.952-3.592c-.633 2.628-1.22 5.078-1.83 7.64zm-10.122-4.656-2.717.82c.233-1.696.466-3.36.699-5.023.255-1.807.499-3.614.765-5.443l1.252.61 11.542 5.565zm11.53-5.178-.155.078-4.125-5.212 3.249-.387c.377 1.84.732 3.67 1.031 5.52m-.155-6.763-.178-.1c.045-2.218.09-4.435.134-6.83l4.28 3.626zm3.903-4.302c-1.154-.976-2.284-1.962-3.437-2.916-.3-.177-.422-.554-.3-.876.887-3.149 1.74-6.308 2.606-9.457.033-.1.066-.189.11-.277h.145c.465 4.567.92 9.147 1.397 13.825a3.4 3.4 0 0 1-.521-.288zm1.13.599a5858 5858 0 0 1-1.319-13.116l.189-.034c1.142 3.859 2.284 7.717 3.437 11.642zm.566.321 2.018-1.341a16 16 0 0 1 1.996 2.162l-4.025-.82zm5.011.676-2.14-2.028a7.7 7.7 0 0 1 3.005-.344l-.876 2.372zm6.874 5.145a774 774 0 0 1-6.164-4.335c-.089-.056-.166-.133-.3-.244l1.098-2.994c1.652.998 3.182 2.107 4.746 3.16a704 704 0 0 1 4.723 3.204c1.574 1.065 3.137 2.13 4.712 3.194l-.067.166c-.599-.122-1.197-.244-1.785-.377-2.029-.466-4.069-.931-6.098-1.408a2.5 2.5 0 0 1-.876-.355zm8.582 6.076-6.697-4.735.078-.155 8.293 1.918-1.663 2.972zm6.076 4.29-5.61-3.958 1.651-2.927 4.092 6.774-.122.122zm1.053.322-3.98-6.575c2.073 1.12 4.035 2.384 6.053 3.714-.698.965-1.352 1.863-2.084 2.86zm1.009-.4c.499-.698.998-1.396 1.519-2.084a.58.58 0 0 1 .41-.177c1.286-.022 2.583-.033 3.87-.044.044 0 .077.044.243.144-2.029.787-3.958 1.607-5.942 2.295zm2.295.145-.056-.189c.31-.133.621-.266.932-.388 1.452-.576 2.905-1.13 4.346-1.718.31-.144.665-.166.998-.067.787.222 1.585.41 2.372.621.222.056.41.178.555.355l-9.136 1.375zm11.165-1.641-4.258-1.109a29 29 0 0 1 4.102-1.774c.266.943.322 1.93.156 2.894zm-.078-3.692-8.304-.91c.399-.498 7.705-5.121 8.614-5.454-.1 2.15-.2 4.213-.31 6.375zm-5.333-9.358 1.94-2.428c.4-.499.776-.998 1.187-1.485.122-.145.343-.322.499-.3.909.1 1.807.244 2.794.388-.244 1.952-.466 3.759-.699 5.688zM75.161 56.4l-1.785.267-2.805.42c-.078-.82-.155-1.585-.255-2.472 1.075.277 2.073.632 3.049.976.599.21 1.197.421 1.807.61l-.022.2zm3.603-.543c-.52.089-1.03.189-1.552.255a1.5 1.5 0 0 1-.62-.033c-.4-.133-.8-.277-1.198-.41-.677-.233-1.342-.455-2.018-.688-.82-.277-1.641-.554-2.473-.842-.1-.056-.21-.111-.299-.178l2.772-1.086 2.018-.788 3.415-1.341c.543 1.63 1.064 3.193 1.63 4.856-.61.1-1.143.178-1.675.266zm2.218-.998-.178-.022-1.408-4.224 3.77.587z"/></svg>